<mxfile host="app.diagrams.net" modified="2024-02-27T07:23:45.722Z" agent="Mozilla/5.0 (Windows NT 10.0; Win64; x64) AppleWebKit/537.36 (KHTML, like Gecko) Chrome/121.0.0.0 Safari/537.36" etag="DKzo0S8Rg_KKwnS0hjKd" version="23.1.7" type="device">
  <diagram name="Page-1" id="qd4K68mjo8Kun1ON4pCY">
    <mxGraphModel dx="2610" dy="868" grid="1" gridSize="10" guides="1" tooltips="1" connect="1" arrows="1" fold="1" page="1" pageScale="1" pageWidth="850" pageHeight="1100" math="0" shadow="0">
      <root>
        <mxCell id="0" />
        <mxCell id="1" parent="0" />
        <mxCell id="C9GThzhM6XO5aighroy3-26" value="" style="rounded=0;whiteSpace=wrap;html=1;fontSize=8;fillColor=#a6a8a4;" parent="1" vertex="1">
          <mxGeometry x="95" y="20" width="280" height="960" as="geometry" />
        </mxCell>
        <mxCell id="C9GThzhM6XO5aighroy3-27" style="edgeStyle=orthogonalEdgeStyle;rounded=0;orthogonalLoop=1;jettySize=auto;html=1;exitX=0.5;exitY=0.5;exitDx=0;exitDy=0;exitPerimeter=0;" parent="1" source="C9GThzhM6XO5aighroy3-1" edge="1">
          <mxGeometry relative="1" as="geometry">
            <mxPoint x="-40" y="239.73684210526312" as="targetPoint" />
          </mxGeometry>
        </mxCell>
        <mxCell id="C9GThzhM6XO5aighroy3-1" value="User" style="shape=umlActor;verticalLabelPosition=bottom;verticalAlign=top;html=1;outlineConnect=0;" parent="1" vertex="1">
          <mxGeometry x="-50" y="210" width="30" height="60" as="geometry" />
        </mxCell>
        <mxCell id="C9GThzhM6XO5aighroy3-2" value="Service Provider" style="shape=umlActor;verticalLabelPosition=bottom;verticalAlign=top;html=1;outlineConnect=0;" parent="1" vertex="1">
          <mxGeometry x="800" y="432" width="30" height="60" as="geometry" />
        </mxCell>
        <mxCell id="C9GThzhM6XO5aighroy3-3" value="Payment&amp;nbsp;&lt;br&gt;Gateway" style="shape=umlActor;verticalLabelPosition=bottom;verticalAlign=top;html=1;outlineConnect=0;" parent="1" vertex="1">
          <mxGeometry x="510" y="200" width="30" height="60" as="geometry" />
        </mxCell>
        <mxCell id="C9GThzhM6XO5aighroy3-4" value="Process Payment" style="ellipse;whiteSpace=wrap;html=1;" parent="1" vertex="1">
          <mxGeometry x="178" y="120" width="114.29" height="50" as="geometry" />
        </mxCell>
        <mxCell id="C9GThzhM6XO5aighroy3-5" value="Search For Service" style="ellipse;whiteSpace=wrap;html=1;" parent="1" vertex="1">
          <mxGeometry x="178" y="185" width="114.29" height="50" as="geometry" />
        </mxCell>
        <mxCell id="C9GThzhM6XO5aighroy3-6" value="Select Service" style="ellipse;whiteSpace=wrap;html=1;" parent="1" vertex="1">
          <mxGeometry x="178" y="250" width="114.29" height="50" as="geometry" />
        </mxCell>
        <mxCell id="C9GThzhM6XO5aighroy3-7" value="login" style="ellipse;whiteSpace=wrap;html=1;" parent="1" vertex="1">
          <mxGeometry x="178" y="320" width="114.29" height="50" as="geometry" />
        </mxCell>
        <mxCell id="C9GThzhM6XO5aighroy3-8" value="Confirm Booking" style="ellipse;whiteSpace=wrap;html=1;" parent="1" vertex="1">
          <mxGeometry x="178" y="460" width="114.29" height="50" as="geometry" />
        </mxCell>
        <mxCell id="C9GThzhM6XO5aighroy3-10" value="Enter Personal info" style="ellipse;whiteSpace=wrap;html=1;" parent="1" vertex="1">
          <mxGeometry x="178" y="390" width="114.29" height="50" as="geometry" />
        </mxCell>
        <mxCell id="C9GThzhM6XO5aighroy3-11" value="View Bookings" style="ellipse;whiteSpace=wrap;html=1;" parent="1" vertex="1">
          <mxGeometry x="178" y="670" width="114.29" height="50" as="geometry" />
        </mxCell>
        <mxCell id="C9GThzhM6XO5aighroy3-12" value="Add/Delete/Edit Services" style="ellipse;whiteSpace=wrap;html=1;" parent="1" vertex="1">
          <mxGeometry x="178" y="740" width="114.29" height="50" as="geometry" />
        </mxCell>
        <mxCell id="C9GThzhM6XO5aighroy3-13" value="Add/Delete/edit availability" style="ellipse;whiteSpace=wrap;html=1;" parent="1" vertex="1">
          <mxGeometry x="178" y="810" width="114.29" height="50" as="geometry" />
        </mxCell>
        <mxCell id="C9GThzhM6XO5aighroy3-14" value="" style="endArrow=none;html=1;rounded=0;entryX=0.044;entryY=0.74;entryDx=0;entryDy=0;entryPerimeter=0;exitX=0.5;exitY=0.5;exitDx=0;exitDy=0;exitPerimeter=0;" parent="1" source="C9GThzhM6XO5aighroy3-1" target="C9GThzhM6XO5aighroy3-4" edge="1">
          <mxGeometry width="50" height="50" relative="1" as="geometry">
            <mxPoint x="110" y="380" as="sourcePoint" />
            <mxPoint x="160" y="330" as="targetPoint" />
          </mxGeometry>
        </mxCell>
        <mxCell id="C9GThzhM6XO5aighroy3-15" value="" style="endArrow=none;html=1;rounded=0;entryX=0;entryY=0.5;entryDx=0;entryDy=0;exitX=0.5;exitY=0.5;exitDx=0;exitDy=0;exitPerimeter=0;" parent="1" source="C9GThzhM6XO5aighroy3-1" target="C9GThzhM6XO5aighroy3-5" edge="1">
          <mxGeometry width="50" height="50" relative="1" as="geometry">
            <mxPoint x="-20" y="245" as="sourcePoint" />
            <mxPoint x="193" y="167" as="targetPoint" />
          </mxGeometry>
        </mxCell>
        <mxCell id="C9GThzhM6XO5aighroy3-16" value="" style="endArrow=none;html=1;rounded=0;entryX=0;entryY=0.5;entryDx=0;entryDy=0;exitX=0.5;exitY=0.5;exitDx=0;exitDy=0;exitPerimeter=0;" parent="1" source="C9GThzhM6XO5aighroy3-1" target="C9GThzhM6XO5aighroy3-6" edge="1">
          <mxGeometry width="50" height="50" relative="1" as="geometry">
            <mxPoint x="-10" y="255" as="sourcePoint" />
            <mxPoint x="188" y="220" as="targetPoint" />
          </mxGeometry>
        </mxCell>
        <mxCell id="C9GThzhM6XO5aighroy3-17" value="" style="endArrow=none;html=1;rounded=0;entryX=0;entryY=0.5;entryDx=0;entryDy=0;exitX=0.5;exitY=0.5;exitDx=0;exitDy=0;exitPerimeter=0;" parent="1" source="C9GThzhM6XO5aighroy3-1" target="C9GThzhM6XO5aighroy3-7" edge="1">
          <mxGeometry width="50" height="50" relative="1" as="geometry">
            <mxPoint y="265" as="sourcePoint" />
            <mxPoint x="188" y="285" as="targetPoint" />
          </mxGeometry>
        </mxCell>
        <mxCell id="C9GThzhM6XO5aighroy3-18" value="" style="endArrow=none;html=1;rounded=0;entryX=0;entryY=0.5;entryDx=0;entryDy=0;exitX=0.5;exitY=0.5;exitDx=0;exitDy=0;exitPerimeter=0;" parent="1" source="C9GThzhM6XO5aighroy3-1" target="C9GThzhM6XO5aighroy3-10" edge="1">
          <mxGeometry width="50" height="50" relative="1" as="geometry">
            <mxPoint x="10" y="275" as="sourcePoint" />
            <mxPoint x="188" y="355" as="targetPoint" />
          </mxGeometry>
        </mxCell>
        <mxCell id="C9GThzhM6XO5aighroy3-20" value="" style="endArrow=none;html=1;rounded=0;entryX=0;entryY=0.5;entryDx=0;entryDy=0;exitX=0.5;exitY=0.5;exitDx=0;exitDy=0;exitPerimeter=0;" parent="1" source="C9GThzhM6XO5aighroy3-1" target="C9GThzhM6XO5aighroy3-8" edge="1">
          <mxGeometry width="50" height="50" relative="1" as="geometry">
            <mxPoint x="30" y="295" as="sourcePoint" />
            <mxPoint x="188" y="495" as="targetPoint" />
          </mxGeometry>
        </mxCell>
        <mxCell id="C9GThzhM6XO5aighroy3-21" value="" style="endArrow=none;html=1;rounded=0;entryX=0;entryY=0.3333333333333333;entryDx=0;entryDy=0;entryPerimeter=0;exitX=1;exitY=0.5;exitDx=0;exitDy=0;" parent="1" source="C9GThzhM6XO5aighroy3-4" target="C9GThzhM6XO5aighroy3-3" edge="1">
          <mxGeometry width="50" height="50" relative="1" as="geometry">
            <mxPoint x="482.29" y="173" as="sourcePoint" />
            <mxPoint x="710.29" y="90" as="targetPoint" />
          </mxGeometry>
        </mxCell>
        <mxCell id="C9GThzhM6XO5aighroy3-22" value="" style="endArrow=none;html=1;rounded=0;exitX=0;exitY=0.5;exitDx=0;exitDy=0;" parent="1" source="C9GThzhM6XO5aighroy3-11" edge="1">
          <mxGeometry width="50" height="50" relative="1" as="geometry">
            <mxPoint x="-140" y="560" as="sourcePoint" />
            <mxPoint x="-10" y="750" as="targetPoint" />
          </mxGeometry>
        </mxCell>
        <mxCell id="C9GThzhM6XO5aighroy3-23" value="" style="endArrow=none;html=1;rounded=0;exitX=0;exitY=0.5;exitDx=0;exitDy=0;" parent="1" source="C9GThzhM6XO5aighroy3-12" edge="1">
          <mxGeometry width="50" height="50" relative="1" as="geometry">
            <mxPoint x="188" y="705" as="sourcePoint" />
            <mxPoint x="-10" y="760" as="targetPoint" />
          </mxGeometry>
        </mxCell>
        <mxCell id="C9GThzhM6XO5aighroy3-24" value="" style="endArrow=none;html=1;rounded=0;exitX=0;exitY=0.5;exitDx=0;exitDy=0;" parent="1" source="C9GThzhM6XO5aighroy3-13" edge="1">
          <mxGeometry width="50" height="50" relative="1" as="geometry">
            <mxPoint x="188" y="775" as="sourcePoint" />
            <mxPoint x="-10" y="770" as="targetPoint" />
          </mxGeometry>
        </mxCell>
        <mxCell id="HltqpRvb3K0nNOo4zdf1-5" value="&lt;font style=&quot;font-size: 24px;&quot;&gt;BookKing-Login&lt;/font&gt;" style="swimlane;whiteSpace=wrap;html=1;startSize=50;" vertex="1" parent="1">
          <mxGeometry x="863" y="70" width="600" height="610" as="geometry" />
        </mxCell>
        <mxCell id="HltqpRvb3K0nNOo4zdf1-10" value="signup" style="ellipse;whiteSpace=wrap;html=1;" vertex="1" parent="HltqpRvb3K0nNOo4zdf1-5">
          <mxGeometry x="242.8499999999999" y="115" width="114.29" height="50" as="geometry" />
        </mxCell>
        <mxCell id="HltqpRvb3K0nNOo4zdf1-11" value="login" style="ellipse;whiteSpace=wrap;html=1;" vertex="1" parent="HltqpRvb3K0nNOo4zdf1-5">
          <mxGeometry x="242.8499999999999" y="255" width="114.29" height="50" as="geometry" />
        </mxCell>
        <mxCell id="HltqpRvb3K0nNOo4zdf1-12" value="validation" style="ellipse;whiteSpace=wrap;html=1;" vertex="1" parent="HltqpRvb3K0nNOo4zdf1-5">
          <mxGeometry x="390" y="210" width="81.43" height="40" as="geometry" />
        </mxCell>
        <mxCell id="HltqpRvb3K0nNOo4zdf1-18" value="" style="endArrow=classic;html=1;rounded=0;exitX=1;exitY=1;exitDx=0;exitDy=0;entryX=0;entryY=0;entryDx=0;entryDy=0;dashed=1;" edge="1" parent="HltqpRvb3K0nNOo4zdf1-5" source="HltqpRvb3K0nNOo4zdf1-10" target="HltqpRvb3K0nNOo4zdf1-12">
          <mxGeometry width="50" height="50" relative="1" as="geometry">
            <mxPoint x="307" y="240" as="sourcePoint" />
            <mxPoint x="357" y="190" as="targetPoint" />
          </mxGeometry>
        </mxCell>
        <mxCell id="HltqpRvb3K0nNOo4zdf1-19" value="" style="endArrow=classic;html=1;rounded=0;exitX=1;exitY=0.5;exitDx=0;exitDy=0;entryX=0;entryY=1;entryDx=0;entryDy=0;dashed=1;" edge="1" parent="HltqpRvb3K0nNOo4zdf1-5" source="HltqpRvb3K0nNOo4zdf1-11" target="HltqpRvb3K0nNOo4zdf1-12">
          <mxGeometry width="50" height="50" relative="1" as="geometry">
            <mxPoint x="351" y="167" as="sourcePoint" />
            <mxPoint x="412" y="226" as="targetPoint" />
          </mxGeometry>
        </mxCell>
        <mxCell id="HltqpRvb3K0nNOo4zdf1-20" value="&amp;lt;&amp;lt;include&amp;gt;&amp;gt;" style="text;html=1;align=center;verticalAlign=middle;whiteSpace=wrap;rounded=0;" vertex="1" parent="HltqpRvb3K0nNOo4zdf1-5">
          <mxGeometry x="377" y="165" width="50" height="20" as="geometry" />
        </mxCell>
        <mxCell id="HltqpRvb3K0nNOo4zdf1-21" value="&amp;lt;&amp;lt;include&amp;gt;&amp;gt;" style="text;html=1;align=center;verticalAlign=middle;whiteSpace=wrap;rounded=0;" vertex="1" parent="HltqpRvb3K0nNOo4zdf1-5">
          <mxGeometry x="387" y="270" width="50" height="20" as="geometry" />
        </mxCell>
        <mxCell id="HltqpRvb3K0nNOo4zdf1-26" value="manage account" style="ellipse;whiteSpace=wrap;html=1;" vertex="1" parent="HltqpRvb3K0nNOo4zdf1-5">
          <mxGeometry x="242.8499999999999" y="360" width="114.29" height="50" as="geometry" />
        </mxCell>
        <mxCell id="HltqpRvb3K0nNOo4zdf1-6" value="User" style="shape=umlActor;verticalLabelPosition=bottom;verticalAlign=top;html=1;outlineConnect=0;" vertex="1" parent="1">
          <mxGeometry x="800" y="230" width="30" height="60" as="geometry" />
        </mxCell>
        <mxCell id="HltqpRvb3K0nNOo4zdf1-8" value="Admin" style="shape=umlActor;verticalLabelPosition=bottom;verticalAlign=top;html=1;outlineConnect=0;" vertex="1" parent="1">
          <mxGeometry x="-40" y="740" width="30" height="60" as="geometry" />
        </mxCell>
        <mxCell id="HltqpRvb3K0nNOo4zdf1-9" value="Payment&amp;nbsp;&lt;br&gt;Gateway" style="shape=umlActor;verticalLabelPosition=bottom;verticalAlign=top;html=1;outlineConnect=0;" vertex="1" parent="1">
          <mxGeometry x="2520" y="345" width="30" height="60" as="geometry" />
        </mxCell>
        <mxCell id="HltqpRvb3K0nNOo4zdf1-23" value="Admin" style="shape=umlActor;verticalLabelPosition=bottom;verticalAlign=top;html=1;outlineConnect=0;" vertex="1" parent="1">
          <mxGeometry x="800" y="560" width="30" height="60" as="geometry" />
        </mxCell>
        <mxCell id="HltqpRvb3K0nNOo4zdf1-24" value="" style="endArrow=none;html=1;rounded=0;exitX=0.5;exitY=0.5;exitDx=0;exitDy=0;exitPerimeter=0;entryX=0;entryY=0.5;entryDx=0;entryDy=0;" edge="1" parent="1" source="HltqpRvb3K0nNOo4zdf1-6" target="HltqpRvb3K0nNOo4zdf1-10">
          <mxGeometry width="50" height="50" relative="1" as="geometry">
            <mxPoint x="1070" y="420" as="sourcePoint" />
            <mxPoint x="1120" y="370" as="targetPoint" />
          </mxGeometry>
        </mxCell>
        <mxCell id="HltqpRvb3K0nNOo4zdf1-25" value="" style="endArrow=none;html=1;rounded=0;exitX=0.5;exitY=0.5;exitDx=0;exitDy=0;exitPerimeter=0;entryX=0;entryY=0.5;entryDx=0;entryDy=0;" edge="1" parent="1" source="HltqpRvb3K0nNOo4zdf1-6" target="HltqpRvb3K0nNOo4zdf1-11">
          <mxGeometry width="50" height="50" relative="1" as="geometry">
            <mxPoint x="825" y="270" as="sourcePoint" />
            <mxPoint x="1116" y="220" as="targetPoint" />
          </mxGeometry>
        </mxCell>
        <mxCell id="HltqpRvb3K0nNOo4zdf1-27" value="" style="endArrow=none;html=1;rounded=0;exitX=0.5;exitY=0.5;exitDx=0;exitDy=0;exitPerimeter=0;entryX=0;entryY=0.5;entryDx=0;entryDy=0;" edge="1" parent="1" source="C9GThzhM6XO5aighroy3-2" target="HltqpRvb3K0nNOo4zdf1-10">
          <mxGeometry width="50" height="50" relative="1" as="geometry">
            <mxPoint x="830" y="390" as="sourcePoint" />
            <mxPoint x="1121" y="340" as="targetPoint" />
          </mxGeometry>
        </mxCell>
        <mxCell id="HltqpRvb3K0nNOo4zdf1-28" value="" style="endArrow=none;html=1;rounded=0;exitX=0.5;exitY=0.5;exitDx=0;exitDy=0;exitPerimeter=0;entryX=0;entryY=0.5;entryDx=0;entryDy=0;" edge="1" parent="1" source="C9GThzhM6XO5aighroy3-2" target="HltqpRvb3K0nNOo4zdf1-11">
          <mxGeometry width="50" height="50" relative="1" as="geometry">
            <mxPoint x="825" y="472" as="sourcePoint" />
            <mxPoint x="1116" y="220" as="targetPoint" />
          </mxGeometry>
        </mxCell>
        <mxCell id="HltqpRvb3K0nNOo4zdf1-29" value="" style="endArrow=none;html=1;rounded=0;entryX=0;entryY=0.5;entryDx=0;entryDy=0;exitX=0.5;exitY=0.5;exitDx=0;exitDy=0;exitPerimeter=0;" edge="1" parent="1" source="C9GThzhM6XO5aighroy3-2" target="HltqpRvb3K0nNOo4zdf1-26">
          <mxGeometry width="50" height="50" relative="1" as="geometry">
            <mxPoint x="840" y="490" as="sourcePoint" />
            <mxPoint x="1116" y="360" as="targetPoint" />
          </mxGeometry>
        </mxCell>
        <mxCell id="HltqpRvb3K0nNOo4zdf1-30" value="" style="endArrow=none;html=1;rounded=0;exitX=0.5;exitY=0.5;exitDx=0;exitDy=0;exitPerimeter=0;entryX=0;entryY=0;entryDx=0;entryDy=0;" edge="1" parent="1" source="HltqpRvb3K0nNOo4zdf1-6" target="HltqpRvb3K0nNOo4zdf1-26">
          <mxGeometry width="50" height="50" relative="1" as="geometry">
            <mxPoint x="825" y="270" as="sourcePoint" />
            <mxPoint x="1116" y="360" as="targetPoint" />
          </mxGeometry>
        </mxCell>
        <mxCell id="HltqpRvb3K0nNOo4zdf1-31" value="Server&lt;div&gt;&lt;br/&gt;&lt;/div&gt;" style="shape=umlActor;verticalLabelPosition=bottom;verticalAlign=top;html=1;outlineConnect=0;" vertex="1" parent="1">
          <mxGeometry x="1520" y="370" width="30" height="60" as="geometry" />
        </mxCell>
        <mxCell id="HltqpRvb3K0nNOo4zdf1-32" value="" style="endArrow=none;html=1;rounded=0;exitX=1;exitY=0.5;exitDx=0;exitDy=0;entryX=0.5;entryY=0.5;entryDx=0;entryDy=0;entryPerimeter=0;" edge="1" parent="1" source="HltqpRvb3K0nNOo4zdf1-26" target="HltqpRvb3K0nNOo4zdf1-31">
          <mxGeometry width="50" height="50" relative="1" as="geometry">
            <mxPoint x="1155" y="366.5" as="sourcePoint" />
            <mxPoint x="1463" y="543.5" as="targetPoint" />
          </mxGeometry>
        </mxCell>
        <mxCell id="HltqpRvb3K0nNOo4zdf1-33" value="" style="endArrow=none;html=1;rounded=0;exitX=1;exitY=0.5;exitDx=0;exitDy=0;entryX=0.5;entryY=0.5;entryDx=0;entryDy=0;entryPerimeter=0;" edge="1" parent="1" source="HltqpRvb3K0nNOo4zdf1-12" target="HltqpRvb3K0nNOo4zdf1-31">
          <mxGeometry width="50" height="50" relative="1" as="geometry">
            <mxPoint x="1230" y="465" as="sourcePoint" />
            <mxPoint x="1545" y="410" as="targetPoint" />
          </mxGeometry>
        </mxCell>
        <mxCell id="HltqpRvb3K0nNOo4zdf1-34" value="" style="endArrow=none;html=1;rounded=0;entryX=0;entryY=0.5;entryDx=0;entryDy=0;exitX=0.5;exitY=0.5;exitDx=0;exitDy=0;exitPerimeter=0;" edge="1" parent="1" source="HltqpRvb3K0nNOo4zdf1-23" target="HltqpRvb3K0nNOo4zdf1-11">
          <mxGeometry width="50" height="50" relative="1" as="geometry">
            <mxPoint x="850" y="554" as="sourcePoint" />
            <mxPoint x="1141" y="547" as="targetPoint" />
          </mxGeometry>
        </mxCell>
        <mxCell id="HltqpRvb3K0nNOo4zdf1-35" value="" style="endArrow=none;html=1;rounded=0;entryX=0;entryY=0.5;entryDx=0;entryDy=0;exitX=0.5;exitY=0.5;exitDx=0;exitDy=0;exitPerimeter=0;" edge="1" parent="1" source="HltqpRvb3K0nNOo4zdf1-23" target="HltqpRvb3K0nNOo4zdf1-26">
          <mxGeometry width="50" height="50" relative="1" as="geometry">
            <mxPoint x="825" y="600" as="sourcePoint" />
            <mxPoint x="1116" y="360" as="targetPoint" />
          </mxGeometry>
        </mxCell>
        <mxCell id="HltqpRvb3K0nNOo4zdf1-91" value="&lt;font style=&quot;font-size: 24px;&quot;&gt;BookKing-Payment&lt;/font&gt;" style="swimlane;whiteSpace=wrap;html=1;startSize=50;" vertex="1" parent="1">
          <mxGeometry x="1930" y="60" width="480" height="560" as="geometry" />
        </mxCell>
        <mxCell id="HltqpRvb3K0nNOo4zdf1-92" value="making the paymen" style="ellipse;whiteSpace=wrap;html=1;" vertex="1" parent="HltqpRvb3K0nNOo4zdf1-91">
          <mxGeometry x="179.99999999999991" y="130" width="114.29" height="50" as="geometry" />
        </mxCell>
        <mxCell id="HltqpRvb3K0nNOo4zdf1-93" value="processing" style="ellipse;whiteSpace=wrap;html=1;" vertex="1" parent="HltqpRvb3K0nNOo4zdf1-91">
          <mxGeometry x="179.99999999999991" y="225" width="114.29" height="50" as="geometry" />
        </mxCell>
        <mxCell id="HltqpRvb3K0nNOo4zdf1-95" value="" style="endArrow=classic;html=1;rounded=0;exitX=0.5;exitY=1;exitDx=0;exitDy=0;entryX=0.5;entryY=0;entryDx=0;entryDy=0;dashed=1;" edge="1" parent="HltqpRvb3K0nNOo4zdf1-91" source="HltqpRvb3K0nNOo4zdf1-92" target="HltqpRvb3K0nNOo4zdf1-93">
          <mxGeometry width="50" height="50" relative="1" as="geometry">
            <mxPoint x="244.15" y="255" as="sourcePoint" />
            <mxPoint x="339.33129687892597" y="230.73314843946298" as="targetPoint" />
          </mxGeometry>
        </mxCell>
        <mxCell id="HltqpRvb3K0nNOo4zdf1-96" value="" style="endArrow=classic;html=1;rounded=0;exitX=0.5;exitY=1;exitDx=0;exitDy=0;entryX=0.5;entryY=0;entryDx=0;entryDy=0;dashed=1;" edge="1" parent="HltqpRvb3K0nNOo4zdf1-91" source="HltqpRvb3K0nNOo4zdf1-93" target="HltqpRvb3K0nNOo4zdf1-103">
          <mxGeometry width="50" height="50" relative="1" as="geometry">
            <mxPoint x="288.15" y="182" as="sourcePoint" />
            <mxPoint x="339.33129687892597" y="259.26685156053736" as="targetPoint" />
          </mxGeometry>
        </mxCell>
        <mxCell id="HltqpRvb3K0nNOo4zdf1-97" value="&amp;lt;&amp;lt;include&amp;gt;&amp;gt;" style="text;html=1;align=center;verticalAlign=middle;whiteSpace=wrap;rounded=0;" vertex="1" parent="HltqpRvb3K0nNOo4zdf1-91">
          <mxGeometry x="249.99999999999997" y="190" width="50" height="20" as="geometry" />
        </mxCell>
        <mxCell id="HltqpRvb3K0nNOo4zdf1-98" value="&amp;lt;&amp;lt;include&amp;gt;&amp;gt;" style="text;html=1;align=center;verticalAlign=middle;whiteSpace=wrap;rounded=0;" vertex="1" parent="HltqpRvb3K0nNOo4zdf1-91">
          <mxGeometry x="249.99999999999997" y="285" width="50" height="20" as="geometry" />
        </mxCell>
        <mxCell id="HltqpRvb3K0nNOo4zdf1-99" value="sending confirmation" style="ellipse;whiteSpace=wrap;html=1;" vertex="1" parent="HltqpRvb3K0nNOo4zdf1-91">
          <mxGeometry x="179.99999999999991" y="425" width="114.29" height="50" as="geometry" />
        </mxCell>
        <mxCell id="HltqpRvb3K0nNOo4zdf1-103" value="confirmation" style="ellipse;whiteSpace=wrap;html=1;" vertex="1" parent="HltqpRvb3K0nNOo4zdf1-91">
          <mxGeometry x="179.99999999999991" y="320" width="114.29" height="50" as="geometry" />
        </mxCell>
        <mxCell id="HltqpRvb3K0nNOo4zdf1-104" value="" style="endArrow=classic;html=1;rounded=0;exitX=0.5;exitY=1;exitDx=0;exitDy=0;entryX=0.5;entryY=0;entryDx=0;entryDy=0;dashed=1;" edge="1" parent="HltqpRvb3K0nNOo4zdf1-91" source="HltqpRvb3K0nNOo4zdf1-103" target="HltqpRvb3K0nNOo4zdf1-99">
          <mxGeometry width="50" height="50" relative="1" as="geometry">
            <mxPoint x="247" y="285" as="sourcePoint" />
            <mxPoint x="247" y="330" as="targetPoint" />
          </mxGeometry>
        </mxCell>
        <mxCell id="HltqpRvb3K0nNOo4zdf1-105" value="&amp;lt;&amp;lt;include&amp;gt;&amp;gt;" style="text;html=1;align=center;verticalAlign=middle;whiteSpace=wrap;rounded=0;" vertex="1" parent="HltqpRvb3K0nNOo4zdf1-91">
          <mxGeometry x="250" y="380" width="50" height="20" as="geometry" />
        </mxCell>
        <mxCell id="HltqpRvb3K0nNOo4zdf1-100" value="Server&lt;div&gt;&lt;br/&gt;&lt;/div&gt;" style="shape=umlActor;verticalLabelPosition=bottom;verticalAlign=top;html=1;outlineConnect=0;" vertex="1" parent="1">
          <mxGeometry x="2510" y="175" width="30" height="60" as="geometry" />
        </mxCell>
        <mxCell id="HltqpRvb3K0nNOo4zdf1-101" value="Email Service" style="shape=umlActor;verticalLabelPosition=bottom;verticalAlign=top;html=1;outlineConnect=0;" vertex="1" parent="1">
          <mxGeometry x="2490" y="520" width="30" height="60" as="geometry" />
        </mxCell>
        <mxCell id="HltqpRvb3K0nNOo4zdf1-102" value="User" style="shape=umlActor;verticalLabelPosition=bottom;verticalAlign=top;html=1;outlineConnect=0;" vertex="1" parent="1">
          <mxGeometry x="1830" y="210" width="30" height="60" as="geometry" />
        </mxCell>
        <mxCell id="HltqpRvb3K0nNOo4zdf1-106" value="" style="endArrow=none;html=1;rounded=0;exitX=0.5;exitY=0.5;exitDx=0;exitDy=0;entryX=0;entryY=0.5;entryDx=0;entryDy=0;exitPerimeter=0;" edge="1" parent="1" source="HltqpRvb3K0nNOo4zdf1-102" target="HltqpRvb3K0nNOo4zdf1-92">
          <mxGeometry width="50" height="50" relative="1" as="geometry">
            <mxPoint x="1729" y="270" as="sourcePoint" />
            <mxPoint x="1930" y="370" as="targetPoint" />
          </mxGeometry>
        </mxCell>
        <mxCell id="HltqpRvb3K0nNOo4zdf1-107" value="" style="endArrow=none;html=1;rounded=0;exitX=1;exitY=0.5;exitDx=0;exitDy=0;entryX=0.5;entryY=0.5;entryDx=0;entryDy=0;entryPerimeter=0;" edge="1" parent="1" source="HltqpRvb3K0nNOo4zdf1-92" target="HltqpRvb3K0nNOo4zdf1-100">
          <mxGeometry width="50" height="50" relative="1" as="geometry">
            <mxPoint x="2125" y="285" as="sourcePoint" />
            <mxPoint x="2420" y="270" as="targetPoint" />
          </mxGeometry>
        </mxCell>
        <mxCell id="HltqpRvb3K0nNOo4zdf1-108" value="" style="endArrow=none;html=1;rounded=0;exitX=1;exitY=0.5;exitDx=0;exitDy=0;entryX=0.5;entryY=0.5;entryDx=0;entryDy=0;entryPerimeter=0;" edge="1" parent="1" source="HltqpRvb3K0nNOo4zdf1-93" target="HltqpRvb3K0nNOo4zdf1-100">
          <mxGeometry width="50" height="50" relative="1" as="geometry">
            <mxPoint x="2234" y="225" as="sourcePoint" />
            <mxPoint x="2535" y="215" as="targetPoint" />
          </mxGeometry>
        </mxCell>
        <mxCell id="HltqpRvb3K0nNOo4zdf1-109" value="" style="endArrow=none;html=1;rounded=0;exitX=1;exitY=0.5;exitDx=0;exitDy=0;entryX=0.5;entryY=0.5;entryDx=0;entryDy=0;entryPerimeter=0;" edge="1" parent="1" source="HltqpRvb3K0nNOo4zdf1-103" target="HltqpRvb3K0nNOo4zdf1-100">
          <mxGeometry width="50" height="50" relative="1" as="geometry">
            <mxPoint x="2234" y="320" as="sourcePoint" />
            <mxPoint x="2535" y="215" as="targetPoint" />
          </mxGeometry>
        </mxCell>
        <mxCell id="HltqpRvb3K0nNOo4zdf1-110" value="" style="endArrow=none;html=1;rounded=0;exitX=1;exitY=0.5;exitDx=0;exitDy=0;entryX=0.5;entryY=0.5;entryDx=0;entryDy=0;entryPerimeter=0;" edge="1" parent="1" source="HltqpRvb3K0nNOo4zdf1-99" target="HltqpRvb3K0nNOo4zdf1-100">
          <mxGeometry width="50" height="50" relative="1" as="geometry">
            <mxPoint x="2234" y="415" as="sourcePoint" />
            <mxPoint x="2535" y="215" as="targetPoint" />
          </mxGeometry>
        </mxCell>
        <mxCell id="HltqpRvb3K0nNOo4zdf1-111" value="" style="endArrow=none;html=1;rounded=0;exitX=1;exitY=0.5;exitDx=0;exitDy=0;entryX=0.5;entryY=0.5;entryDx=0;entryDy=0;entryPerimeter=0;" edge="1" parent="1" source="HltqpRvb3K0nNOo4zdf1-93" target="HltqpRvb3K0nNOo4zdf1-9">
          <mxGeometry width="50" height="50" relative="1" as="geometry">
            <mxPoint x="2234" y="520" as="sourcePoint" />
            <mxPoint x="2535" y="215" as="targetPoint" />
          </mxGeometry>
        </mxCell>
        <mxCell id="HltqpRvb3K0nNOo4zdf1-112" value="" style="endArrow=none;html=1;rounded=0;exitX=1;exitY=0.5;exitDx=0;exitDy=0;entryX=0.5;entryY=0.5;entryDx=0;entryDy=0;entryPerimeter=0;" edge="1" parent="1" source="HltqpRvb3K0nNOo4zdf1-103" target="HltqpRvb3K0nNOo4zdf1-9">
          <mxGeometry width="50" height="50" relative="1" as="geometry">
            <mxPoint x="2234" y="320" as="sourcePoint" />
            <mxPoint x="2470" y="410" as="targetPoint" />
          </mxGeometry>
        </mxCell>
        <mxCell id="HltqpRvb3K0nNOo4zdf1-113" value="" style="endArrow=none;html=1;rounded=0;exitX=1;exitY=0.5;exitDx=0;exitDy=0;entryX=0.5;entryY=0.5;entryDx=0;entryDy=0;entryPerimeter=0;" edge="1" parent="1" source="HltqpRvb3K0nNOo4zdf1-99" target="HltqpRvb3K0nNOo4zdf1-101">
          <mxGeometry width="50" height="50" relative="1" as="geometry">
            <mxPoint x="2234" y="415" as="sourcePoint" />
            <mxPoint x="2545" y="385" as="targetPoint" />
          </mxGeometry>
        </mxCell>
        <mxCell id="HltqpRvb3K0nNOo4zdf1-114" value="Service Provider" style="shape=umlActor;verticalLabelPosition=bottom;verticalAlign=top;html=1;outlineConnect=0;" vertex="1" parent="1">
          <mxGeometry x="2780" y="390" width="30" height="60" as="geometry" />
        </mxCell>
        <mxCell id="HltqpRvb3K0nNOo4zdf1-115" value="&lt;font style=&quot;font-size: 24px;&quot;&gt;BookKing-Service&lt;/font&gt;" style="swimlane;whiteSpace=wrap;html=1;startSize=50;" vertex="1" parent="1">
          <mxGeometry x="2843" y="50" width="600" height="670" as="geometry" />
        </mxCell>
        <mxCell id="HltqpRvb3K0nNOo4zdf1-116" value="view services" style="ellipse;whiteSpace=wrap;html=1;" vertex="1" parent="HltqpRvb3K0nNOo4zdf1-115">
          <mxGeometry x="242.8599999999999" y="115" width="114.29" height="50" as="geometry" />
        </mxCell>
        <mxCell id="HltqpRvb3K0nNOo4zdf1-117" value="search services" style="ellipse;whiteSpace=wrap;html=1;" vertex="1" parent="HltqpRvb3K0nNOo4zdf1-115">
          <mxGeometry x="242.8499999999999" y="200" width="114.29" height="50" as="geometry" />
        </mxCell>
        <mxCell id="HltqpRvb3K0nNOo4zdf1-123" value="make booking" style="ellipse;whiteSpace=wrap;html=1;" vertex="1" parent="HltqpRvb3K0nNOo4zdf1-115">
          <mxGeometry x="242.8499999999999" y="290" width="114.29" height="50" as="geometry" />
        </mxCell>
        <mxCell id="HltqpRvb3K0nNOo4zdf1-137" value="update service detail" style="ellipse;whiteSpace=wrap;html=1;" vertex="1" parent="HltqpRvb3K0nNOo4zdf1-115">
          <mxGeometry x="242.85" y="380" width="117.15" height="50" as="geometry" />
        </mxCell>
        <mxCell id="HltqpRvb3K0nNOo4zdf1-138" value="add new service" style="ellipse;whiteSpace=wrap;html=1;" vertex="1" parent="HltqpRvb3K0nNOo4zdf1-115">
          <mxGeometry x="242.8499999999999" y="460" width="114.29" height="50" as="geometry" />
        </mxCell>
        <mxCell id="HltqpRvb3K0nNOo4zdf1-139" value="remove service" style="ellipse;whiteSpace=wrap;html=1;" vertex="1" parent="HltqpRvb3K0nNOo4zdf1-115">
          <mxGeometry x="242.8499999999999" y="540" width="114.29" height="50" as="geometry" />
        </mxCell>
        <mxCell id="HltqpRvb3K0nNOo4zdf1-124" value="User" style="shape=umlActor;verticalLabelPosition=bottom;verticalAlign=top;html=1;outlineConnect=0;" vertex="1" parent="1">
          <mxGeometry x="2780" y="210" width="30" height="60" as="geometry" />
        </mxCell>
        <mxCell id="HltqpRvb3K0nNOo4zdf1-125" value="Admin" style="shape=umlActor;verticalLabelPosition=bottom;verticalAlign=top;html=1;outlineConnect=0;" vertex="1" parent="1">
          <mxGeometry x="2780" y="540" width="30" height="60" as="geometry" />
        </mxCell>
        <mxCell id="HltqpRvb3K0nNOo4zdf1-132" value="Server&lt;div&gt;&lt;br/&gt;&lt;/div&gt;" style="shape=umlActor;verticalLabelPosition=bottom;verticalAlign=top;html=1;outlineConnect=0;" vertex="1" parent="1">
          <mxGeometry x="3500" y="350" width="30" height="60" as="geometry" />
        </mxCell>
        <mxCell id="HltqpRvb3K0nNOo4zdf1-140" value="" style="endArrow=none;html=1;rounded=0;exitX=0.5;exitY=0.5;exitDx=0;exitDy=0;exitPerimeter=0;entryX=0;entryY=0.5;entryDx=0;entryDy=0;" edge="1" parent="1" source="HltqpRvb3K0nNOo4zdf1-124" target="HltqpRvb3K0nNOo4zdf1-116">
          <mxGeometry width="50" height="50" relative="1" as="geometry">
            <mxPoint x="3120" y="500" as="sourcePoint" />
            <mxPoint x="3080" y="190" as="targetPoint" />
          </mxGeometry>
        </mxCell>
        <mxCell id="HltqpRvb3K0nNOo4zdf1-141" value="" style="endArrow=none;html=1;rounded=0;exitX=0.5;exitY=0.5;exitDx=0;exitDy=0;exitPerimeter=0;entryX=0;entryY=0.5;entryDx=0;entryDy=0;" edge="1" parent="1" source="HltqpRvb3K0nNOo4zdf1-124" target="HltqpRvb3K0nNOo4zdf1-117">
          <mxGeometry width="50" height="50" relative="1" as="geometry">
            <mxPoint x="2805" y="250" as="sourcePoint" />
            <mxPoint x="3090" y="200" as="targetPoint" />
          </mxGeometry>
        </mxCell>
        <mxCell id="HltqpRvb3K0nNOo4zdf1-142" value="" style="endArrow=none;html=1;rounded=0;exitX=0.5;exitY=0.5;exitDx=0;exitDy=0;exitPerimeter=0;entryX=0;entryY=0.5;entryDx=0;entryDy=0;" edge="1" parent="1" source="HltqpRvb3K0nNOo4zdf1-124" target="HltqpRvb3K0nNOo4zdf1-123">
          <mxGeometry width="50" height="50" relative="1" as="geometry">
            <mxPoint x="2805" y="250" as="sourcePoint" />
            <mxPoint x="3096" y="285" as="targetPoint" />
          </mxGeometry>
        </mxCell>
        <mxCell id="HltqpRvb3K0nNOo4zdf1-143" value="" style="endArrow=none;html=1;rounded=0;entryX=0;entryY=0.5;entryDx=0;entryDy=0;exitX=0.5;exitY=0.5;exitDx=0;exitDy=0;exitPerimeter=0;" edge="1" parent="1" source="HltqpRvb3K0nNOo4zdf1-114" target="HltqpRvb3K0nNOo4zdf1-137">
          <mxGeometry width="50" height="50" relative="1" as="geometry">
            <mxPoint x="2900" y="450" as="sourcePoint" />
            <mxPoint x="3096" y="375" as="targetPoint" />
          </mxGeometry>
        </mxCell>
        <mxCell id="HltqpRvb3K0nNOo4zdf1-145" value="" style="endArrow=none;html=1;rounded=0;entryX=0;entryY=0.5;entryDx=0;entryDy=0;exitX=0.5;exitY=0.5;exitDx=0;exitDy=0;exitPerimeter=0;" edge="1" parent="1" source="HltqpRvb3K0nNOo4zdf1-114" target="HltqpRvb3K0nNOo4zdf1-138">
          <mxGeometry width="50" height="50" relative="1" as="geometry">
            <mxPoint x="2805" y="430" as="sourcePoint" />
            <mxPoint x="3096" y="465" as="targetPoint" />
          </mxGeometry>
        </mxCell>
        <mxCell id="HltqpRvb3K0nNOo4zdf1-146" value="" style="endArrow=none;html=1;rounded=0;entryX=0;entryY=0.5;entryDx=0;entryDy=0;exitX=0.5;exitY=0.5;exitDx=0;exitDy=0;exitPerimeter=0;" edge="1" parent="1" source="HltqpRvb3K0nNOo4zdf1-114" target="HltqpRvb3K0nNOo4zdf1-139">
          <mxGeometry width="50" height="50" relative="1" as="geometry">
            <mxPoint x="2805" y="430" as="sourcePoint" />
            <mxPoint x="3096" y="545" as="targetPoint" />
          </mxGeometry>
        </mxCell>
        <mxCell id="HltqpRvb3K0nNOo4zdf1-147" value="" style="endArrow=none;html=1;rounded=0;entryX=0;entryY=0.5;entryDx=0;entryDy=0;exitX=0.5;exitY=0.5;exitDx=0;exitDy=0;exitPerimeter=0;" edge="1" parent="1" source="HltqpRvb3K0nNOo4zdf1-125" target="HltqpRvb3K0nNOo4zdf1-137">
          <mxGeometry width="50" height="50" relative="1" as="geometry">
            <mxPoint x="2805" y="430" as="sourcePoint" />
            <mxPoint x="3096" y="625" as="targetPoint" />
          </mxGeometry>
        </mxCell>
        <mxCell id="HltqpRvb3K0nNOo4zdf1-148" value="" style="endArrow=none;html=1;rounded=0;entryX=0;entryY=0.5;entryDx=0;entryDy=0;exitX=0.5;exitY=0.5;exitDx=0;exitDy=0;exitPerimeter=0;" edge="1" parent="1" source="HltqpRvb3K0nNOo4zdf1-125" target="HltqpRvb3K0nNOo4zdf1-138">
          <mxGeometry width="50" height="50" relative="1" as="geometry">
            <mxPoint x="2805" y="580" as="sourcePoint" />
            <mxPoint x="3096" y="465" as="targetPoint" />
          </mxGeometry>
        </mxCell>
        <mxCell id="HltqpRvb3K0nNOo4zdf1-149" value="" style="endArrow=none;html=1;rounded=0;entryX=0;entryY=0.5;entryDx=0;entryDy=0;exitX=0.5;exitY=0.5;exitDx=0;exitDy=0;exitPerimeter=0;" edge="1" parent="1" source="HltqpRvb3K0nNOo4zdf1-125" target="HltqpRvb3K0nNOo4zdf1-139">
          <mxGeometry width="50" height="50" relative="1" as="geometry">
            <mxPoint x="2805" y="580" as="sourcePoint" />
            <mxPoint x="3096" y="545" as="targetPoint" />
          </mxGeometry>
        </mxCell>
        <mxCell id="HltqpRvb3K0nNOo4zdf1-150" value="" style="endArrow=none;html=1;rounded=0;exitX=0.5;exitY=0.5;exitDx=0;exitDy=0;exitPerimeter=0;entryX=1;entryY=0.5;entryDx=0;entryDy=0;" edge="1" parent="1" source="HltqpRvb3K0nNOo4zdf1-132" target="HltqpRvb3K0nNOo4zdf1-116">
          <mxGeometry width="50" height="50" relative="1" as="geometry">
            <mxPoint x="2805" y="250" as="sourcePoint" />
            <mxPoint x="3096" y="200" as="targetPoint" />
          </mxGeometry>
        </mxCell>
        <mxCell id="HltqpRvb3K0nNOo4zdf1-151" value="" style="endArrow=none;html=1;rounded=0;exitX=0.5;exitY=0.5;exitDx=0;exitDy=0;exitPerimeter=0;entryX=1;entryY=0.5;entryDx=0;entryDy=0;" edge="1" parent="1" source="HltqpRvb3K0nNOo4zdf1-132" target="HltqpRvb3K0nNOo4zdf1-117">
          <mxGeometry width="50" height="50" relative="1" as="geometry">
            <mxPoint x="3525" y="390" as="sourcePoint" />
            <mxPoint x="3220" y="260" as="targetPoint" />
          </mxGeometry>
        </mxCell>
        <mxCell id="HltqpRvb3K0nNOo4zdf1-152" value="" style="endArrow=none;html=1;rounded=0;exitX=0.5;exitY=0.5;exitDx=0;exitDy=0;exitPerimeter=0;entryX=1;entryY=0.5;entryDx=0;entryDy=0;" edge="1" parent="1" source="HltqpRvb3K0nNOo4zdf1-132" target="HltqpRvb3K0nNOo4zdf1-123">
          <mxGeometry width="50" height="50" relative="1" as="geometry">
            <mxPoint x="3525" y="390" as="sourcePoint" />
            <mxPoint x="3210" y="285" as="targetPoint" />
          </mxGeometry>
        </mxCell>
        <mxCell id="HltqpRvb3K0nNOo4zdf1-153" value="" style="endArrow=none;html=1;rounded=0;exitX=0.5;exitY=0.5;exitDx=0;exitDy=0;exitPerimeter=0;entryX=1;entryY=0.5;entryDx=0;entryDy=0;" edge="1" parent="1" source="HltqpRvb3K0nNOo4zdf1-132" target="HltqpRvb3K0nNOo4zdf1-137">
          <mxGeometry width="50" height="50" relative="1" as="geometry">
            <mxPoint x="3525" y="390" as="sourcePoint" />
            <mxPoint x="3210" y="375" as="targetPoint" />
          </mxGeometry>
        </mxCell>
        <mxCell id="HltqpRvb3K0nNOo4zdf1-154" value="" style="endArrow=none;html=1;rounded=0;exitX=0.5;exitY=0.5;exitDx=0;exitDy=0;exitPerimeter=0;entryX=1;entryY=0.5;entryDx=0;entryDy=0;" edge="1" parent="1" source="HltqpRvb3K0nNOo4zdf1-132" target="HltqpRvb3K0nNOo4zdf1-138">
          <mxGeometry width="50" height="50" relative="1" as="geometry">
            <mxPoint x="3525" y="390" as="sourcePoint" />
            <mxPoint x="3213" y="465" as="targetPoint" />
          </mxGeometry>
        </mxCell>
        <mxCell id="HltqpRvb3K0nNOo4zdf1-155" value="" style="endArrow=none;html=1;rounded=0;exitX=0.5;exitY=0.5;exitDx=0;exitDy=0;exitPerimeter=0;entryX=1;entryY=0.5;entryDx=0;entryDy=0;" edge="1" parent="1" source="HltqpRvb3K0nNOo4zdf1-132" target="HltqpRvb3K0nNOo4zdf1-139">
          <mxGeometry width="50" height="50" relative="1" as="geometry">
            <mxPoint x="3525" y="390" as="sourcePoint" />
            <mxPoint x="3210" y="545" as="targetPoint" />
          </mxGeometry>
        </mxCell>
      </root>
    </mxGraphModel>
  </diagram>
</mxfile>
